<svg width="20" height="19" viewBox="0 0 20 19" fill="none" xmlns="http://www.w3.org/2000/svg">
<path fill-rule="evenodd" clip-rule="evenodd" d="M19.1489 12.9451V8.87363V0H2.12766L0 2.2967V14.4066H5.31915V18.1648H7.65957L10.2128 15.4506H16.5957L19.1489 12.9451ZM14.7263 12.0653C14.8298 12.0597 14.9313 12.0185 15.0053 11.9459L17.3457 9.64917C17.4255 9.57088 17.4681 9.46648 17.4681 9.35165V1.41758C17.4681 1.18791 17.2766 1 17.0426 1H3.42553C3.19149 1 3 1.18791 3 1.41758V11.6484C3 11.7933 3.07632 11.9217 3.19149 11.9966V12.3187H6.82979V13.9451C6.82979 14.0876 6.9003 14.2172 7.02128 14.2944V14.6154L10.4255 12.3187H14.4681L14.7263 12.0653Z" fill="white"/>
<path d="M12.79 8.76274V4.58691H11.0878V8.76274H12.79ZM8.53465 8.76274V4.58691H6.83252V8.76274H8.53465Z" fill="white"/>
</svg>
